<?xml version="1.0" encoding="utf-8" ?><svg xmlns="http://www.w3.org/2000/svg" xmlns:xlink="http://www.w3.org/1999/xlink" width="1024" height="1024" viewBox="0 0 1024 1024"><path fill="#10FCF2" fill-opacity="0.98823529" d="M511.056 164.868C516.495 166.195 557.414 191.053 566.308 196.262L636.314 237.505C650.663 245.894 667.334 254.965 681.075 264.103C681.776 324.945 680.753 386.012 681.235 446.868C677.075 450.035 667.438 455.327 662.653 458.09L632.307 475.819L513.713 545.679C510.805 546.949 482.409 529.235 478.327 526.828L430.545 498.671C402.645 482.224 370.306 464.238 343.4 446.95C342.722 386.242 344.5 324.266 343.319 263.742C350.989 258.55 359.841 253.805 367.929 249.119L406.895 226.328L473.151 187.159C485.566 179.814 498.503 171.808 511.056 164.868ZM353.937 441.461L484.849 518.598C492.513 523.085 503.668 529.697 511.611 534.385C511.984 534.308 512.358 534.231 512.731 534.154L619.883 470.881C635.993 461.365 654.073 450.088 670.373 441.303C669.672 432.273 669.96 419.698 669.962 410.465L670.106 358.543L670.259 306.647C670.209 294.75 669.817 281.589 670.274 269.799C655.979 260.692 639.934 251.632 625.228 242.915L546.523 196.543L522.456 182.492C520.991 181.638 512.804 176.847 511.67 176.504C459.428 207.584 405.38 238.087 353.612 269.522C354.722 289.338 353.998 315.508 353.981 335.712L353.937 441.461Z"/><path fill="#10FCF2" fill-opacity="0.98823529" d="M482.765 243.081C487.602 242.479 493.004 243.473 497.329 245.584C514.407 253.919 514.739 278.807 498.74 288.44C496.102 290.028 493.87 290.679 490.999 291.54L491.137 350.233C491.151 359.929 491.403 369.781 490.708 379.452C490.396 383.782 488.787 386.375 485.88 389.571C492.755 395.596 500.267 403.114 506.954 409.495L506.939 408.016L506.892 371.231C506.91 366.842 507.01 362.35 507.03 357.979C507.151 332.15 529.908 335.556 548.486 335.837C553.437 321.62 567.809 313.691 581.61 319.775C613.013 333.618 592.656 377.912 561.42 363.983C553.844 360.604 550.444 354.191 547.816 346.647C530.95 346.939 518.465 341.323 518.038 363.459L518.08 479.039L506.98 479.169C506.65 461.33 506.917 442.703 506.912 424.803C499.476 417.111 490.977 410.001 483.332 402.473C480.091 399.282 476.434 395.832 472.814 393.101C467.255 392.994 457.891 392.741 452.673 393.135C440.66 394.04 449.621 417.151 444.247 424.463C442.946 425.127 443.448 425.164 442.154 425.103C440.276 425.016 438.665 423.454 437.636 421.909C433.373 415.506 433.944 405.095 435.001 397.879C439.01 370.523 469.542 386.574 478.25 380.28C481.062 373.72 479.938 353.23 479.927 345.251L479.969 291.701C453.131 281.7 454.208 249.443 482.765 243.081ZM489.812 279.587C496.56 277.416 500.313 270.227 498.235 263.45C496.158 256.672 489.021 252.821 482.215 254.806C477.729 256.114 474.295 259.735 473.226 264.285C472.158 268.834 473.621 273.606 477.055 276.774C480.49 279.943 485.364 281.017 489.812 279.587ZM575.265 354.86C582.092 353.414 586.506 346.772 585.197 339.918C583.887 333.064 577.335 328.518 570.456 329.691C565.883 330.471 562.088 333.661 560.535 338.032C558.982 342.404 559.912 347.273 562.968 350.764C566.023 354.254 570.727 355.821 575.265 354.86Z"/><path fill="#10FCF2" d="M454.502 605.477L538.515 605.43C569.46 605.48 590.458 603.336 588.952 643.538C588.604 652.834 586.701 656.315 579.942 662.64C582.108 665.151 586.822 670.514 587.518 673.465C589.818 683.216 589.799 699.394 585.608 708.391C582.255 713.613 574.363 719.866 567.929 720.275C541.096 721.977 513.861 720.646 486.937 721.022C476.231 721.171 464.701 721.231 454.056 720.607C453.51 703.928 453.897 685.88 453.841 669.101C453.77 648.066 453.672 626.445 454.502 605.477ZM479.203 653.801C505.421 653.367 531.949 654.054 558.171 653.304C559.481 653.266 560.656 652.256 561.62 651.471C564.299 646.699 566.332 632.267 559.545 628.783C557.654 627.812 553.227 628.054 551.042 627.779C527.098 626.922 502.993 627.908 479.059 627.519C479.083 636.049 478.924 645.334 479.203 653.801ZM561.421 697.371L562.566 695.538C564.188 690.123 566.331 674.737 558.18 673.679C549.316 672.528 539.366 672.984 530.371 673.011L479.088 673.222C479.251 681.97 479.327 690.406 479.234 699.153C495.282 699.524 511.722 699.36 527.775 699.375C534.002 699.381 557.033 700.307 561.421 697.371Z"/><path fill="#10FCF2" d="M663.172 605.239C677.927 604.919 693.261 605.147 708.029 605.267C717.764 605.347 729.214 605.235 738.823 605.949C739.98 611.024 739.569 622.026 739.528 627.536L680.791 627.419C668.506 627.432 654.451 627.015 642.443 628.644C641.296 637.409 641.54 644.967 641.575 653.805C654.11 653.187 669.629 653.585 682.478 653.565C694.907 653.546 710.811 653.182 722.855 653.886C723.231 659.801 723.048 667.138 722.813 673.039C695.769 673.143 668.52 672.832 641.505 673.269L641.508 685.009C641.51 689.191 641.345 693.633 642.731 697.591C643.709 698.55 643.927 698.705 645.432 698.775C676.667 700.229 708.372 698.783 739.612 699.101L739.652 720.921C703.858 721.46 666.695 721.367 630.875 720.726C621.953 720.566 617.692 713.783 617.479 705.157C616.772 676.531 616.525 647.515 617.681 618.889C618.328 604.239 636.375 604.871 646.426 605.339C651.869 605.592 657.707 605.297 663.172 605.239Z"/><path fill="#10FCF2" d="M319.006 605.487L319.007 666.303C318.995 674.766 318.821 683.356 318.943 691.815C319.073 700.827 327.232 698.867 333.563 698.887L357.688 698.922C368.024 698.928 381.507 700.575 391.24 698.226C395.065 697.303 393.987 670.574 393.979 666.467L393.7 617.06C393.693 614.327 393.516 608.127 395.392 606.24C399.217 604.813 414.632 605.424 419.65 605.476C419.747 612.405 419.678 619.439 419.667 626.378L419.755 673.245C419.785 682.436 420.442 693.743 418.83 702.548C416.062 717.665 398.546 721.287 385.779 721.18C369.427 721.044 353.446 721.05 337.144 721.098C328.597 721.123 319.911 721.573 311.544 719.828C304.768 718.492 295.085 710.086 294.192 703.124C292.828 692.483 293.422 681.124 293.426 670.443L293.454 605.455L319.006 605.487Z"/><path fill="#10FCF2" d="M231.657 605.484C241.234 605.354 254.723 604.858 263.768 606.421C260.244 611.208 251.094 619.331 246.518 623.485C232.117 636.557 217.166 649.268 202.444 662.004C213.197 671.539 223.925 681.761 234.842 691.461C243.164 698.894 259.707 713.082 266.535 720.874C255.411 721.243 243.014 721.129 231.905 720.921C227.978 718.217 221.652 712.236 217.96 708.866L192.735 685.791C188.036 681.489 181.75 675.365 176.756 671.739C173.192 671.603 169.133 671.68 165.528 671.668L165.63 721.027L139.956 721.045C139.827 717.452 139.822 713.858 139.858 710.263C140.21 675.333 139.216 640.386 139.978 605.46C148.447 605.564 157.085 605.477 165.568 605.48L165.58 655.211C168.496 655.164 171.472 655.044 174.393 654.958C182.007 649.535 189.007 642.195 196.207 636.194C207.931 626.421 219.315 614.372 231.657 605.484Z"/><path fill="#10FCF2" d="M859.303 605.511C867.895 605.423 881.015 604.805 888.969 606.457C885.263 612.519 875.725 622.699 870.624 628.447L841.994 660.802C857.105 677.542 871.484 695.119 886.465 711.995C889.037 714.892 891.506 717.876 893.894 720.926L883.25 721.059C876.572 721.1 870.027 721.064 863.35 720.961C859.178 717.427 852.834 709.685 849.092 705.348L826.491 679.018C820.492 685.897 793.629 717.485 787.998 721.017C778.003 721.095 768.201 721.024 758.214 720.898C761.35 715.644 772.837 703.113 777.317 698.058L810.341 660.771C803.699 654.159 765.896 611.539 764.012 605.609C772.985 605.099 784.6 605.461 793.753 605.532C802.428 613.559 817.964 632.482 826.326 642.149C836.106 631.302 849.067 615.009 859.303 605.511Z"/><path fill="#10FCF2" fill-opacity="0.98823529" d="M468.591 783.051C484.412 781.813 486.813 791.816 486.387 805.245C486.056 815.673 485.957 820.449 475.569 824.662C460.4 825.83 457.137 814.468 457.476 801.816C457.715 792.897 459.906 786.533 468.591 783.051ZM472.777 820.171C483.533 816.327 482.108 802.613 479.744 793.383C478.84 789.854 475.384 788.129 471.928 787.592C465.234 789.165 463.498 794.466 463.184 800.99C462.796 809.051 463.205 818.402 472.777 820.171Z"/><path fill="#10FCF2" fill-opacity="0.98823529" d="M877.086 790.927C878.841 791.931 879.367 792.328 879.237 794.269C877.983 796.343 877.347 796.486 875.155 797.761C875.637 801.163 876.323 804.942 874.738 808.125C871.549 814.53 863.17 813.021 858.256 814.705C861.651 819.958 875.37 816.39 878.802 822.59C882.467 829.21 876.587 832.166 871.438 834.337C861.223 835.435 845.604 834.269 854.914 820.384C851.827 816.388 852.438 815.036 855.679 811.515C849.794 796.15 856.131 790.841 871.296 793.859L877.086 790.927ZM867.736 808.422C874.127 801.87 869.681 797.152 861.843 797.537C854.489 803.795 858.795 809.403 867.736 808.422ZM872.142 829.252C873.869 827.832 873.701 828.4 874.215 826.598C872.288 822.441 862.778 822.708 858.651 822.546C857.664 824.496 857.166 824.998 857.453 827.034C859.69 831.41 868.134 830.048 872.142 829.252Z"/><path fill="#10FCF2" fill-opacity="0.98823529" d="M230.987 782.007C233.039 782.154 233.726 782.211 235.71 782.682C236.691 786.451 236.216 818.768 235.564 823.586C234.31 824.681 235.021 824.397 233.357 824.466C231.879 823.586 231.723 823.337 230.601 822.101L230.273 821.736C228.098 822.766 226.338 823.863 224.285 825.094C221.21 824.91 218.83 824.503 216.004 823.285C203.865 813.17 211.553 784.32 230.949 796.977L230.987 782.007ZM224.692 820.217C234.687 815.422 234.171 800.069 222.227 798.649C213.085 801.512 211.907 819.762 224.692 820.217Z"/><path fill="#10FCF2" fill-opacity="0.98823529" d="M189.917 793.524C206.75 792.838 211.868 819.641 192.901 825.076C174.618 824.517 171.362 799.278 189.917 793.524ZM194.409 819.952C203.03 813.372 201.606 797.828 188.105 798.548C180.45 804.781 180.389 821.026 194.409 819.952Z"/><path fill="#10FCF2" d="M510.264 793.262C514.883 793.799 518.473 811.768 519.636 816.132C520.573 811.679 522.635 796.951 525.284 794.212C526.952 794.076 526.984 793.916 528.43 794.656C529.243 796.799 526.819 806.683 526.106 809.387C525.05 813.391 523.639 824.215 518.474 824.165C515.372 821.846 512.237 808.129 511.057 803.649L510.684 802.513C509.666 803.295 506.811 819.482 504.319 823.51C502.878 824.307 500.783 824.172 499.053 824.227C497.129 818.455 492.459 799.877 492.973 794.333C494.405 793.699 493.643 793.899 495.44 794.221C499.295 797.314 500.555 810.412 501.524 816.022C503.617 808.789 505.19 798.569 510.264 793.262Z"/><path fill="#10FCF2" fill-opacity="0.98823529" d="M337.759 793.569C354.039 792.327 351.477 806.303 350.489 817.262C352.697 819.979 355.822 820.557 355.511 824.273C353.14 826.117 349.222 823.547 347.454 821.703C343.597 823.302 341.308 824.142 337.31 825.291C333.806 824.225 333.14 823.993 330.129 821.874C328.03 819.129 326.37 815.65 327.842 811.964C330.613 805.029 344.478 807.616 346.682 802.72C346.254 801.283 344.497 799.586 343.336 799.021C338.835 796.831 335.013 802.321 329.949 803.603L328.942 802.548C329.464 796.507 332.606 795.442 337.759 793.569ZM342.162 819.545C344.19 818.072 346.117 816.279 346.641 813.716C345.296 809.395 340.531 810.428 336.833 810.599C329.018 816.67 335.293 820.943 342.162 819.545Z"/><path fill="#10FCF2" fill-opacity="0.98823529" d="M660.627 793.531C666.129 793.333 671.769 794.453 673.981 800.259C681.543 820.106 658.437 804.468 655.021 812.631C655.258 816.524 658.317 818.78 662.009 819.295C665.957 819.847 668.095 817.808 670.995 815.535C672.369 815.874 672.274 815.841 673.348 816.771C674.258 819.373 672.896 822.265 670.41 823.228C649.326 831.398 639.896 801.908 660.627 793.531ZM663.75 805.972C665.972 805.967 667.14 806.229 668.908 805.084C669.889 803.517 669.722 804.337 669.491 802.554C667.058 799.122 665.323 799.032 661.229 798.626C658.538 799.75 656.834 800.221 655.591 802.88C656.07 807.275 660.561 806.164 663.75 805.972Z"/><path fill="#10FCF2" fill-opacity="0.98823529" d="M253.768 793.585C265.888 792.982 267.853 800.252 268.657 810.657C262.024 810.356 254.571 810.52 247.947 810.72C249.266 821.363 256.697 821.599 264.024 815.636C265.892 816.307 266.822 816.435 267.614 817.902C266.762 820.438 262.291 823.49 259.928 824.268C246.215 828.782 238.604 811.084 244.385 800.539C246.807 796.119 249.468 794.979 253.768 793.585ZM257.75 805.969C260.571 805.939 260.628 806.401 262.602 805.128C264.111 800.565 257.4 798.975 254.131 798.607C251.883 799.837 249.386 801.043 248.321 803.49C248.964 807.006 254.945 806.048 257.75 805.969Z"/><path fill="#10FCF2" fill-opacity="0.98823529" d="M589.656 783.411C594.306 783.357 612.057 781.964 614.14 785.584C613.182 790.251 599.386 788.703 595.321 788.61L595.232 800.462C599.875 800.265 607.009 799.427 610.904 801.492C612.111 803.088 611.787 802.202 611.822 804.275C608.682 806.952 599.862 804.458 595.308 805.82L595.186 806.875L595.235 818.884C600.276 818.722 609.621 817.89 613.69 820.428C614.522 821.982 614.423 821.184 613.977 822.906C611.536 825.144 594.602 824.237 590.07 824.172C588.999 817.047 589.584 792.042 589.656 783.411Z"/><path fill="#10FCF2" fill-opacity="0.98823529" d="M158.125 782.621C165.984 782.505 173.52 786.383 173.888 795.038C173.119 796.812 173.734 796.228 172.123 796.986C166.6 796.568 167.506 789.529 162.882 788.074C151.426 784.95 151.013 796.702 150.87 804.533C150.7 813.809 153.675 824.644 165.297 818.472L166.916 815.693C168.214 813.415 168.787 812.229 171.563 811.685C172.308 812.069 172.745 812.031 172.87 812.871C174.554 824.146 159.982 827.984 152.418 823.394C142.661 817.475 142.867 798.196 147.952 789.46C150.307 785.415 153.771 783.592 158.125 782.621Z"/><path fill="#10FCF2" fill-opacity="0.98823529" d="M770.804 782.099C777.519 783.355 775.453 790.654 775.032 796.142C791.049 788.535 794.524 798.692 793.824 812.963C793.67 816.085 795.307 824.619 791.071 824.626C786.59 821.08 788.211 810.247 788.516 804.906C787.799 800.564 784.628 797.161 779.92 798.079C770.91 799.836 778.524 823.965 772.275 824.678C771.766 824.409 770.1 823.549 769.98 823.113C768.566 817.99 768.903 786.539 769.649 782.842L770.804 782.099Z"/><path fill="#10FCF2" fill-opacity="0.98823529" d="M298.909 783.409C303.76 783.443 308.57 783.42 313.419 783.364C316.247 783.331 322.122 782.893 323.743 785.355C322.784 790.597 308.572 788.723 304.14 788.605L304.149 801.476C309.34 801.486 318.246 799.83 321.699 803.89L320.733 805.638C317.964 807.272 308.297 806.626 304.38 806.579C304.523 810.898 305.97 822.391 301.559 824.13C298.52 823.364 298.719 819.937 298.671 817.032C298.489 805.934 298.705 794.48 298.909 783.409Z"/><path fill="#10FCF2" fill-opacity="0.98823529" d="M708.5 793.878C709.074 793.841 710.77 793.702 711.223 793.957C715.693 796.468 720.276 812.347 721.811 816.706C723.428 812.045 728.243 794.956 733.248 793.576L733.796 794.164C734.982 799.56 729.822 810.878 727.744 816.376C726.035 821.102 719.338 840.788 711.75 834.89C710.466 830.752 719.031 827.481 718.664 823.457C718.112 817.404 707.145 798.962 708.5 793.878Z"/><path fill="#10FCF2" fill-opacity="0.98823529" d="M537.67 793.266C539.788 793.899 539.638 795.479 540.194 797.474C543.439 795.08 544.839 794.431 548.529 793.24C551.095 793.844 554.012 794.367 556.093 796.497C561.565 802.097 561.404 816.202 558.338 823.02C557.877 824.046 556.927 824.259 555.966 824.403C552.499 821.795 554.049 810.19 554.188 806.056C553.776 802.662 552.141 798.284 547.918 798.268C534.869 798.217 544.418 819.419 538.696 824.065C537.035 824.217 537.778 824.39 536.374 823.601C533.633 818.154 534.957 803.777 535.124 797.326C535.18 795.161 536.099 794.496 537.67 793.266Z"/><path fill="#10FCF2" fill-opacity="0.98823529" d="M834.338 793.494C846.596 794.151 846.444 804.662 846.367 814.21C846.343 817.323 846.369 820.802 844.906 823.598C843.578 824.227 843.657 824.311 842.234 824.084C836.507 819.909 847.08 792.939 830.44 799.522L829.881 799.748C822.478 807.161 831.843 820.527 824.427 825.313L823.585 825.058C819.836 820.049 821.914 803.045 821.31 796.523C821.175 795.062 821.915 794.523 822.816 793.703L823.959 793.76C825.398 794.783 825.572 795.377 826.41 796.918L826.697 797.455C829.614 795.652 831.094 794.626 834.338 793.494Z"/><path fill="#10FCF2" fill-opacity="0.98823529" d="M369.011 793.534C373.543 793.545 379.821 795.014 382.059 799.389C380.5 805.002 373.552 798.674 370.956 798.324C369.302 798.102 365.826 799.646 364.624 800.892L364.767 801.828C369.635 806.804 380.808 805.805 383.166 813.149C385.416 820.156 377.353 823.372 372.441 824.616C368.417 824.39 356.589 822.797 359.712 816.212C364 814.854 368.541 820.828 372.695 820.025C375.713 819.442 378.397 817.361 377.83 814.039C374.307 809.508 361.773 811.37 359.904 804.267C358.18 797.718 363.947 794.854 369.011 793.534Z"/><path fill="#10FCF2" fill-opacity="0.98823529" d="M748.252 782.934C754.086 784.22 752.693 788.464 752.543 793.579C756.04 793.903 760.497 793.162 762.534 796.503L762.004 797.55C758.881 799.533 756.23 799.123 752.498 799.161C752.441 805.799 751.845 813.39 753.864 819.621C759.544 819.635 762.359 816.793 764.547 823.013C744.076 829.338 746.743 813.745 746.961 799.089C744.401 799.155 738.474 799.889 739.346 795.837C741.826 793.448 743.488 793.727 746.91 793.511C746.92 789.955 746.642 786.103 748.252 782.934Z"/><path fill="#10FCF2" fill-opacity="0.98823529" d="M395.557 783.262C397.206 783.529 397.173 783.484 398.654 784.22C400.815 786.736 400.061 789.992 399.911 793.485C403.115 793.619 408.074 793.395 409.949 796.337L409.43 797.307C405.974 799.316 403.543 798.971 399.504 799.074C399.352 807.836 398.473 812.317 402.295 820.302C404.837 819.636 407.492 818.595 409.929 819.339C411.415 820.497 411.38 820.965 411.865 822.78C391.751 830.892 394.246 812.682 394.442 799.116C391.482 798.975 387.695 799.279 386.204 796.45L386.65 795.412C389.307 793.547 391.233 793.786 394.43 793.664C394.36 790.145 393.944 786.333 395.557 783.262Z"/><path fill="#10FCF2" fill-opacity="0.98823529" d="M620.067 793.69C621.223 793.638 622.093 793.701 623.246 793.762C627.429 796.11 631.404 811.921 633.629 817.584C635.601 810.902 637.417 803.907 640.234 797.528C641.428 794.824 643.427 792.233 646.298 795.064C646.625 796.982 645.543 798.987 644.802 800.877C642.027 808.526 639.384 816.186 636.729 823.876C634.747 824.09 632.78 824.188 630.792 824.308C627.68 818.332 620.844 800.04 620.067 793.69Z"/><path fill="#10FCF2" fill-opacity="0.98823529" d="M694.962 793.183C698.044 794.114 702.327 795.438 701.951 799.459C699.187 802.736 696.105 800.189 693.089 798.512C690.973 799.911 688.394 801.213 687.951 803.876C687.486 810.148 688.663 816.689 687.756 822.693C686.637 824.293 687.334 823.718 685.649 824.557C680.232 823.082 681.942 798.487 682.445 793.355C685.607 793.648 685.747 793.912 687.893 796.126C689.606 796.309 693.074 794.121 694.962 793.183Z"/><path fill="#10FCF2" d="M801.52 794.642C804.39 794.389 807.846 793.738 810.268 795.282C811.501 798.615 811.26 818.949 810.831 823.127C809.519 824.367 809.182 824.072 807.08 824.528C804.638 822.694 805.897 803.279 806.008 799.559C803.279 799.269 801.178 799.323 799.451 797.067C799.978 795.362 799.767 795.92 801.52 794.642Z"/><path fill="#10FCF2" fill-opacity="0.98823529" d="M886.229 815.931L894.631 815.866L894.57 824.21C892.181 824.093 888.963 824.162 886.513 824.146L886.229 815.931Z"/><path fill="#10FCF2" d="M420.01 816.035L428.057 815.946L428.119 824.007L419.973 824.13L420.01 816.035Z"/><path fill="#10FCF2" fill-opacity="0.98823529" d="M806.47 782.059C809.602 782.388 810.635 782.294 811.597 785.382C811.164 787.524 811.232 787.446 810.032 789.245C804.952 789.18 802.629 784.635 806.47 782.059Z"/></svg>